<svg xmlns="http://www.w3.org/2000/svg" viewBox="0 0 64 64" role="img" aria-label="Voyage favicon">
  <defs>
    <linearGradient id="bg" x1="0" y1="0" x2="1" y2="1">
      <stop offset="0%" stop-color="#162240" />
      <stop offset="100%" stop-color="#0b1120" />
    </linearGradient>
    <radialGradient id="glow" cx="0.35" cy="0.22" r="0.8">
      <stop offset="0%" stop-color="#24365d" stop-opacity="0.9" />
      <stop offset="100%" stop-color="#24365d" stop-opacity="0" />
    </radialGradient>
  </defs>
  <rect width="64" height="64" rx="14" fill="url(#bg)" />
  <rect x="4.5" y="4.5" width="55" height="55" rx="11" fill="none" stroke="#c9a84c" stroke-opacity="0.5" />
  <circle cx="22" cy="17" r="18" fill="url(#glow)" />
  <path d="M32 9l1.8 3.2L37 14l-3.2 1.8L32 19l-1.8-3.2L27 14l3.2-1.8L32 9z" fill="#c9a84c" />
  <path d="M17 16h7.2l7.8 22.4L39.8 16H47L35.8 49H28.2L17 16z" fill="#f5f0e8" />
  <path d="M20 51c4 2.8 8 4.2 12 4.2s8-1.4 12-4.2" fill="none" stroke="#c9a84c" stroke-width="2.2" stroke-linecap="round" />
</svg>
